# xmcd
#
# Track frame offsets: 
#        150
#        24607
#        41130
#        60757
#        82145
#        98297
#        133502
#        170772
#
# Disc length: 2725 seconds
#
# Revision: 8
# Processed by: cddbd v1.5.2PL0 Copyright (c) Steve Scherf et al.
# Submitted via: ExactAudioCopy v0.99pb5
#
DISCID=5e0aa308
DTITLE=Accept - Staying A Life - CD 1
DYEAR=1990
DGENRE=Heavy Metal
TTITLE0=Metal Heart
TTITLE1=Breaker
TTITLE2=Screaming For A Love-Bite
TTITLE3=Up To The Limit
TTITLE4=Living For Tonight
TTITLE5=Princess Of The Dawn
TTITLE6=Neon Nights
TTITLE7=Burning
EXTD=YEAR: 1990
EXTT0=
EXTT1=
EXTT2=
EXTT3=
EXTT4=
EXTT5=
EXTT6=
EXTT7=
PLAYORDER=
